<svg width="1920" height="751" viewBox="0 0 1920 751" fill="none" xmlns="http://www.w3.org/2000/svg">
<rect width="1920" height="708" fill="#F7F7F7"/>
<path d="M674.737 361.479V77.9795H769.937C786.971 77.9795 800.971 81.2461 811.937 87.7795C822.904 94.0795 831.071 103.413 836.437 115.779C841.804 127.913 844.487 142.729 844.487 160.229C844.487 182.163 840.871 198.963 833.637 210.629C826.404 222.063 816.604 229.996 804.237 234.429C791.871 238.863 777.987 241.079 762.587 241.079H737.387V361.479H674.737ZM737.387 197.329H758.387C766.087 197.329 771.921 195.929 775.887 193.129C779.854 190.329 782.421 186.129 783.587 180.529C784.987 174.929 785.687 167.813 785.687 159.179C785.687 151.946 785.104 145.646 783.937 140.279C783.004 134.679 780.554 130.246 776.587 126.979C772.621 123.713 766.437 122.079 758.037 122.079H737.387V197.329ZM865.939 361.479V77.9795H928.589V319.129H993.689V361.479H865.939ZM998.714 361.479L1052.26 77.9795H1123.66L1176.51 361.479H1118.76L1109.31 301.629H1067.66L1057.86 361.479H998.714ZM1073.26 264.179H1103.36L1088.31 153.579L1073.26 264.179ZM1233.49 148.679L1189.74 77.9795H1247.84L1269.19 148.679H1233.49ZM1330.66 361.479V245.629L1276.76 77.9795H1335.91L1362.86 167.579L1387.01 77.9795H1443.71L1390.86 245.629V361.479H1330.66ZM807.491 746.479V462.979H934.891V505.679H870.141V576.029H919.491V619.429H870.141V704.129H935.591V746.479H807.491ZM955.284 746.479V462.979H1033.33C1052.47 462.979 1069.03 465.079 1083.03 469.279C1097.03 473.479 1107.88 481.063 1115.58 492.029C1123.52 502.763 1127.48 518.046 1127.48 537.879C1127.48 549.546 1126.55 559.929 1124.68 569.029C1122.82 578.129 1119.32 586.063 1114.18 592.829C1109.28 599.363 1102.17 604.846 1092.83 609.279L1131.68 746.479H1066.93L1035.78 619.429H1017.93V746.479H955.284ZM1017.93 583.379H1035.43C1044.3 583.379 1051.18 581.863 1056.08 578.829C1060.98 575.563 1064.37 571.013 1066.23 565.179C1068.33 559.113 1069.38 551.879 1069.38 543.479C1069.38 531.346 1067.17 521.896 1062.73 515.129C1058.3 508.363 1050.13 504.979 1038.23 504.979H1017.93V583.379ZM1230.28 750.679C1212.55 750.679 1197.73 747.529 1185.83 741.229C1173.93 734.929 1164.95 725.246 1158.88 712.179C1152.81 698.879 1149.43 681.729 1148.73 660.729L1202.28 652.679C1202.51 664.813 1203.56 674.613 1205.43 682.079C1207.53 689.546 1210.33 694.913 1213.83 698.179C1217.56 701.446 1222 703.079 1227.13 703.079C1233.66 703.079 1237.86 700.863 1239.73 696.429C1241.83 691.996 1242.88 687.329 1242.88 682.429C1242.88 670.763 1240.08 660.963 1234.48 653.029C1228.88 644.863 1221.3 636.696 1211.73 628.529L1187.23 607.179C1176.5 598.079 1167.4 587.813 1159.93 576.379C1152.7 564.713 1149.08 550.363 1149.08 533.329C1149.08 509.296 1156.2 490.979 1170.43 478.379C1184.66 465.546 1204.03 459.129 1228.53 459.129C1243.7 459.129 1255.83 461.696 1264.93 466.829C1274.26 471.963 1281.26 478.729 1285.93 487.129C1290.83 495.296 1294.1 504.046 1295.73 513.379C1297.6 522.479 1298.65 531.229 1298.88 539.629L1244.98 546.279C1244.75 537.879 1244.16 530.646 1243.23 524.579C1242.53 518.279 1240.9 513.496 1238.33 510.229C1235.76 506.729 1231.8 504.979 1226.43 504.979C1220.6 504.979 1216.28 507.429 1213.48 512.329C1210.91 517.229 1209.63 522.129 1209.63 527.029C1209.63 537.529 1212.08 546.163 1216.98 552.929C1222.11 559.463 1228.76 566.346 1236.93 573.579L1260.38 594.229C1272.75 604.729 1283.13 616.629 1291.53 629.929C1300.16 643.229 1304.48 659.679 1304.48 679.279C1304.48 692.579 1301.45 704.713 1295.38 715.679C1289.31 726.413 1280.68 734.929 1269.48 741.229C1258.51 747.529 1245.45 750.679 1230.28 750.679Z" fill="white"/>
<path d="M1858.08 394.21C1857.35 394.21 1856.75 394.06 1856.27 393.76C1855.79 393.46 1855.43 393.05 1855.19 392.53C1854.95 392 1854.83 391.39 1854.83 390.7V385.255C1854.83 384.545 1854.94 383.925 1855.17 383.395C1855.4 382.855 1855.76 382.435 1856.24 382.135C1856.72 381.835 1857.33 381.685 1858.08 381.685C1858.82 381.685 1859.43 381.835 1859.9 382.135C1860.38 382.435 1860.73 382.855 1860.96 383.395C1861.19 383.925 1861.31 384.545 1861.31 385.255V390.7C1861.31 391.39 1861.19 392 1860.95 392.53C1860.71 393.05 1860.35 393.46 1859.87 393.76C1859.39 394.06 1858.79 394.21 1858.08 394.21ZM1858.08 392.17C1858.35 392.17 1858.55 392.085 1858.67 391.915C1858.79 391.745 1858.87 391.545 1858.91 391.315C1858.95 391.075 1858.97 390.855 1858.97 390.655V385.3C1858.97 385.08 1858.95 384.85 1858.91 384.61C1858.88 384.37 1858.8 384.165 1858.68 383.995C1858.56 383.815 1858.36 383.725 1858.08 383.725C1857.8 383.725 1857.6 383.815 1857.47 383.995C1857.35 384.165 1857.27 384.37 1857.23 384.61C1857.2 384.85 1857.18 385.08 1857.18 385.3V390.655C1857.18 390.855 1857.2 391.075 1857.24 391.315C1857.28 391.545 1857.37 391.745 1857.5 391.915C1857.63 392.085 1857.82 392.17 1858.08 392.17ZM1864.26 394V384.25C1864.17 384.3 1864.04 384.355 1863.88 384.415C1863.73 384.465 1863.57 384.525 1863.39 384.595C1863.21 384.655 1863.04 384.715 1862.88 384.775C1862.72 384.825 1862.59 384.87 1862.5 384.91V383.2C1862.62 383.14 1862.78 383.06 1862.98 382.96C1863.19 382.86 1863.41 382.75 1863.64 382.63C1863.87 382.51 1864.09 382.38 1864.29 382.24C1864.5 382.1 1864.66 381.97 1864.77 381.85H1866.57V394H1864.26Z" fill="black"/>
<path d="M1858.08 420.21C1857.35 420.21 1856.75 420.06 1856.27 419.76C1855.79 419.46 1855.43 419.05 1855.19 418.53C1854.95 418 1854.83 417.39 1854.83 416.7V411.255C1854.83 410.545 1854.94 409.925 1855.17 409.395C1855.4 408.855 1855.76 408.435 1856.24 408.135C1856.72 407.835 1857.33 407.685 1858.08 407.685C1858.82 407.685 1859.43 407.835 1859.9 408.135C1860.38 408.435 1860.73 408.855 1860.96 409.395C1861.19 409.925 1861.31 410.545 1861.31 411.255V416.7C1861.31 417.39 1861.19 418 1860.95 418.53C1860.71 419.05 1860.35 419.46 1859.87 419.76C1859.39 420.06 1858.79 420.21 1858.08 420.21ZM1858.08 418.17C1858.35 418.17 1858.55 418.085 1858.67 417.915C1858.79 417.745 1858.87 417.545 1858.91 417.315C1858.95 417.075 1858.97 416.855 1858.97 416.655V411.3C1858.97 411.08 1858.95 410.85 1858.91 410.61C1858.88 410.37 1858.8 410.165 1858.68 409.995C1858.56 409.815 1858.36 409.725 1858.08 409.725C1857.8 409.725 1857.6 409.815 1857.47 409.995C1857.35 410.165 1857.27 410.37 1857.23 410.61C1857.2 410.85 1857.18 411.08 1857.18 411.3V416.655C1857.18 416.855 1857.2 417.075 1857.24 417.315C1857.28 417.545 1857.37 417.745 1857.5 417.915C1857.63 418.085 1857.82 418.17 1858.08 418.17ZM1862.76 420V418.365L1865.71 413.82C1865.93 413.48 1866.14 413.155 1866.33 412.845C1866.53 412.535 1866.69 412.22 1866.81 411.9C1866.94 411.57 1867 411.22 1867 410.85C1867 410.46 1866.93 410.165 1866.78 409.965C1866.63 409.755 1866.41 409.65 1866.13 409.65C1865.83 409.65 1865.6 409.735 1865.44 409.905C1865.28 410.065 1865.17 410.28 1865.11 410.55C1865.05 410.82 1865.02 411.115 1865.02 411.435V412.005H1862.76V411.405C1862.76 410.685 1862.87 410.045 1863.09 409.485C1863.32 408.925 1863.67 408.49 1864.15 408.18C1864.64 407.86 1865.28 407.7 1866.07 407.7C1867.14 407.7 1867.95 407.98 1868.49 408.54C1869.03 409.1 1869.3 409.885 1869.3 410.895C1869.3 411.385 1869.22 411.84 1869.07 412.26C1868.92 412.67 1868.72 413.07 1868.47 413.46C1868.23 413.84 1867.97 414.235 1867.69 414.645L1865.35 418.17H1868.97V420H1862.76Z" fill="black"/>
<path d="M1858.08 446.21C1857.35 446.21 1856.75 446.06 1856.27 445.76C1855.79 445.46 1855.43 445.05 1855.19 444.53C1854.95 444 1854.83 443.39 1854.83 442.7V437.255C1854.83 436.545 1854.94 435.925 1855.17 435.395C1855.4 434.855 1855.76 434.435 1856.24 434.135C1856.72 433.835 1857.33 433.685 1858.08 433.685C1858.82 433.685 1859.43 433.835 1859.9 434.135C1860.38 434.435 1860.73 434.855 1860.96 435.395C1861.19 435.925 1861.31 436.545 1861.31 437.255V442.7C1861.31 443.39 1861.19 444 1860.95 444.53C1860.71 445.05 1860.35 445.46 1859.87 445.76C1859.39 446.06 1858.79 446.21 1858.08 446.21ZM1858.08 444.17C1858.35 444.17 1858.55 444.085 1858.67 443.915C1858.79 443.745 1858.87 443.545 1858.91 443.315C1858.95 443.075 1858.97 442.855 1858.97 442.655V437.3C1858.97 437.08 1858.95 436.85 1858.91 436.61C1858.88 436.37 1858.8 436.165 1858.68 435.995C1858.56 435.815 1858.36 435.725 1858.08 435.725C1857.8 435.725 1857.6 435.815 1857.47 435.995C1857.35 436.165 1857.27 436.37 1857.23 436.61C1857.2 436.85 1857.18 437.08 1857.18 437.3V442.655C1857.18 442.855 1857.2 443.075 1857.24 443.315C1857.28 443.545 1857.37 443.745 1857.5 443.915C1857.63 444.085 1857.82 444.17 1858.08 444.17ZM1865.98 446.21C1865.17 446.21 1864.53 446.06 1864.05 445.76C1863.58 445.45 1863.24 445.02 1863.03 444.47C1862.82 443.91 1862.71 443.27 1862.71 442.55V442.115H1865.02C1865.02 442.135 1865.02 442.19 1865.02 442.28C1865.02 442.36 1865.02 442.44 1865.02 442.52C1865.03 442.91 1865.06 443.235 1865.11 443.495C1865.17 443.745 1865.27 443.935 1865.41 444.065C1865.55 444.195 1865.75 444.26 1866.01 444.26C1866.28 444.26 1866.48 444.195 1866.61 444.065C1866.74 443.925 1866.83 443.725 1866.88 443.465C1866.93 443.205 1866.96 442.885 1866.96 442.505C1866.96 441.895 1866.87 441.425 1866.69 441.095C1866.51 440.755 1866.15 440.58 1865.61 440.57C1865.6 440.57 1865.55 440.57 1865.46 440.57C1865.37 440.57 1865.28 440.57 1865.2 440.57V438.86C1865.26 438.86 1865.32 438.86 1865.38 438.86C1865.45 438.86 1865.51 438.86 1865.56 438.86C1866.1 438.86 1866.47 438.715 1866.66 438.425C1866.86 438.135 1866.96 437.68 1866.96 437.06C1866.96 436.58 1866.89 436.205 1866.75 435.935C1866.61 435.665 1866.35 435.53 1865.97 435.53C1865.59 435.53 1865.34 435.68 1865.22 435.98C1865.1 436.28 1865.03 436.665 1865.02 437.135C1865.02 437.215 1865.02 437.305 1865.02 437.405C1865.02 437.495 1865.02 437.585 1865.02 437.675H1862.71V437.015C1862.71 436.305 1862.84 435.705 1863.1 435.215C1863.36 434.715 1863.73 434.335 1864.21 434.075C1864.69 433.815 1865.28 433.685 1865.97 433.685C1866.66 433.685 1867.25 433.81 1867.74 434.06C1868.23 434.31 1868.6 434.675 1868.85 435.155C1869.11 435.635 1869.24 436.23 1869.24 436.94C1869.24 437.65 1869.09 438.24 1868.79 438.71C1868.5 439.18 1868.14 439.48 1867.71 439.61C1868.01 439.71 1868.27 439.875 1868.5 440.105C1868.73 440.335 1868.91 440.645 1869.04 441.035C1869.17 441.415 1869.24 441.89 1869.24 442.46C1869.24 443.19 1869.13 443.84 1868.92 444.41C1868.71 444.97 1868.37 445.41 1867.89 445.73C1867.41 446.05 1866.77 446.21 1865.98 446.21Z" fill="black"/>
</svg>
